STARTFONT 2.1
FONT kana.10x18
SIZE 16 80 80
FONTBOUNDINGBOX 10 18 0 -5

STARTPROPERTIES 9
POINT_SIZE 160
WEIGHT 10
RESOLUTION_X 80
RESOLUTION_Y 80
X_HEIGHT -2
QUAD_WIDTH 10
DEFAULT_CHAR 32
FONT_DESCENT 5
FONT_ASCENT 13
ENDPROPERTIES

CHARS 256

STARTCHAR onx0
ENCODING 0
SWIDTH 556 0
DWIDTH 10 0
BBX 10 18 0 -5
BITMAP
0000
2200
2200
3200
2A00
2600
2200
2200
0000
0440
0440
0440
0440
0440
0440
0380
0000
0000
ENDCHAR

STARTCHAR onx1
ENCODING 1
SWIDTH 556 0
DWIDTH 10 0
BBX 10 18 0 -5
BITMAP
0000
1C00
2200
2000
1C00
0200
2200
1C00
0000
0440
0440
0440
07C0
0440
0440
0440
0000
0000
ENDCHAR

STARTCHAR onx2
ENCODING 2
SWIDTH 556 0
DWIDTH 10 0
BBX 10 18 0 -5
BITMAP
0000
1C00
2200
2000
1C00
0200
2200
1C00
0000
0440
0440
0280
0100
0280
0440
0440
0000
0000
ENDCHAR

STARTCHAR onx3
ENCODING 3
SWIDTH 556 0
DWIDTH 10 0
BBX 10 18 0 -5
BITMAP
0000
3E00
2000
2000
3C00
2000
2000
3E00
0000
0440
0440
0280
0100
0280
0440
0440
0000
0000
ENDCHAR

STARTCHAR onx4
ENCODING 4
SWIDTH 556 0
DWIDTH 10 0
BBX 10 18 0 -5
BITMAP
0000
3E00
2000
2000
3C00
2000
2000
3E00
0000
07C0
0100
0100
0100
0100
0100
0100
0000
0000
ENDCHAR

STARTCHAR onx5
ENCODING 5
SWIDTH 556 0
DWIDTH 10 0
BBX 10 18 0 -5
BITMAP
0000
3E00
2000
2000
3C00
2000
2000
3E00
0000
0380
0440
0440
0440
0540
04C0
0380
0040
0000
ENDCHAR

STARTCHAR onx6
ENCODING 6
SWIDTH 556 0
DWIDTH 10 0
BBX 10 18 0 -5
BITMAP
0000
0800
1400
2200
2200
3E00
2200
2200
0000
0440
0480
0500
0600
0500
0480
0440
0000
0000
ENDCHAR

STARTCHAR onx7
ENCODING 7
SWIDTH 556 0
DWIDTH 10 0
BBX 10 18 0 -5
BITMAP
0000
0000
0600
0900
0900
0900
1080
1080
1080
2040
2040
3FC0
0600
0900
0900
0600
0000
0000
ENDCHAR

STARTCHAR onx8
ENCODING 8
SWIDTH 556 0
DWIDTH 10 0
BBX 10 18 0 -5
BITMAP
0000
3C00
1200
1200
1C00
1200
1200
3C00
0000
0380
0440
0400
0380
0040
0440
0380
0000
0000
ENDCHAR

STARTCHAR onx9
ENCODING 9
SWIDTH 556 0
DWIDTH 10 0
BBX 10 18 0 -5
BITMAP
0000
2200
2200
2200
3E00
2200
2200
2200
0000
07C0
0100
0100
0100
0100
0100
0100
0000
0000
ENDCHAR

STARTCHAR onx10
ENCODING 10
SWIDTH 556 0
DWIDTH 10 0
BBX 10 18 0 -5
BITMAP
0000
2000
2000
2000
2000
2000
2000
3E00
0000
07C0
0400
0400
0780
0400
0400
0400
0000
0000
ENDCHAR

STARTCHAR onx11
ENCODING 11
SWIDTH 556 0
DWIDTH 10 0
BBX 10 18 0 -5
BITMAP
0000
2200
2200
2200
1400
1400
0800
0800
0000
07C0
0100
0100
0100
0100
0100
0100
0000
0000
ENDCHAR

STARTCHAR onx12
ENCODING 12
SWIDTH 556 0
DWIDTH 10 0
BBX 10 18 0 -5
BITMAP
0000
3E00
2000
2000
3C00
2000
2000
2000
0000
07C0
0400
0400
0780
0400
0400
0400
0000
0000
ENDCHAR

STARTCHAR onx13
ENCODING 13
SWIDTH 556 0
DWIDTH 10 0
BBX 10 18 0 -5
BITMAP
0000
1C00
2200
2000
2000
2000
2200
1C00
0000
0780
0440
0440
0780
0500
0480
0440
0000
0000
ENDCHAR

STARTCHAR onx14
ENCODING 14
SWIDTH 556 0
DWIDTH 10 0
BBX 10 18 0 -5
BITMAP
0000
1C00
2200
2000
1C00
0200
2200
1C00
0000
0380
0440
0440
0440
0440
0440
0380
0000
0000
ENDCHAR

STARTCHAR onx15
ENCODING 15
SWIDTH 556 0
DWIDTH 10 0
BBX 10 18 0 -5
BITMAP
0000
1C00
2200
2000
1C00
0200
2200
1C00
0000
0380
0100
0100
0100
0100
0100
0380
0000
0000
ENDCHAR

STARTCHAR onx16
ENCODING 16
SWIDTH 556 0
DWIDTH 10 0
BBX 10 18 0 -5
BITMAP
0000
3C00
2200
2200
2200
2200
2200
3C00
0000
0400
0400
0400
0400
0400
0400
07C0
0000
0000
ENDCHAR

STARTCHAR onx17
ENCODING 17
SWIDTH 556 0
DWIDTH 10 0
BBX 10 18 0 -5
BITMAP
0000
3C00
2200
2200
2200
2200
2200
3C00
0000
0100
0300
0100
0100
0100
0100
0380
0000
0000
ENDCHAR

STARTCHAR onx18
ENCODING 18
SWIDTH 556 0
DWIDTH 10 0
BBX 10 18 0 -5
BITMAP
0000
3C00
2200
2200
2200
2200
2200
3C00
0000
0380
0440
0440
0080
0100
0200
07C0
0000
0000
ENDCHAR

STARTCHAR onx19
ENCODING 19
SWIDTH 556 0
DWIDTH 10 0
BBX 10 18 0 -5
BITMAP
0000
3C00
2200
2200
2200
2200
2200
3C00
0000
0380
0440
0040
0180
0040
0440
0380
0000
0000
ENDCHAR

STARTCHAR onx20
ENCODING 20
SWIDTH 556 0
DWIDTH 10 0
BBX 10 18 0 -5
BITMAP
0000
3C00
2200
2200
2200
2200
2200
3C00
0000
0080
0180
0280
0480
07C0
0080
0080
0000
0000
ENDCHAR

STARTCHAR onx21
ENCODING 21
SWIDTH 556 0
DWIDTH 10 0
BBX 10 18 0 -5
BITMAP
0000
2200
2200
3200
2A00
2600
2200
2200
0000
0440
0480
0500
0600
0500
0480
0440
0000
0000
ENDCHAR

STARTCHAR onx22
ENCODING 22
SWIDTH 556 0
DWIDTH 10 0
BBX 10 18 0 -5
BITMAP
0000
1C00
2200
2000
1C00
0200
2200
1C00
0000
0440
0440
0280
0100
0100
0100
0100
0000
0000
ENDCHAR

STARTCHAR onx23
ENCODING 23
SWIDTH 556 0
DWIDTH 10 0
BBX 10 18 0 -5
BITMAP
0000
3E00
2000
2000
3C00
2000
2000
3E00
0000
0780
0240
0240
0380
0240
0240
0780
0000
0000
ENDCHAR

STARTCHAR onx24
ENCODING 24
SWIDTH 556 0
DWIDTH 10 0
BBX 10 18 0 -5
BITMAP
0000
1C00
2200
2000
2000
2000
2200
1C00
0000
0440
0440
0640
0540
04C0
0440
0440
0000
0000
ENDCHAR

STARTCHAR onx25
ENCODING 25
SWIDTH 556 0
DWIDTH 10 0
BBX 10 18 0 -5
BITMAP
0000
3E00
2000
2000
3C00
2000
2000
3E00
0000
0440
06C0
0540
0440
0440
0440
0440
0000
0000
ENDCHAR

STARTCHAR onx26
ENCODING 26
SWIDTH 556 0
DWIDTH 10 0
BBX 10 18 0 -5
BITMAP
0000
1C00
2200
2000
1C00
0200
2200
1C00
0000
0780
0240
0240
0380
0240
0240
0780
0000
0000
ENDCHAR

STARTCHAR onx27
ENCODING 27
SWIDTH 556 0
DWIDTH 10 0
BBX 10 18 0 -5
BITMAP
0000
3E00
2000
2000
3C00
2000
2000
3E00
0000
0380
0440
0400
0400
0400
0440
0380
0000
0000
ENDCHAR

STARTCHAR onx28
ENCODING 28
SWIDTH 556 0
DWIDTH 10 0
BBX 10 18 0 -5
BITMAP
0000
3E00
2000
2000
3C00
2000
2000
2000
0000
0380
0440
0400
0380
0040
0440
0380
0000
0000
ENDCHAR

STARTCHAR onx29
ENCODING 29
SWIDTH 556 0
DWIDTH 10 0
BBX 10 18 0 -5
BITMAP
0000
1C00
2200
2000
2E00
2200
2200
1C00
0000
0380
0440
0400
0380
0040
0440
0380
0000
0000
ENDCHAR

STARTCHAR onx30
ENCODING 30
SWIDTH 556 0
DWIDTH 10 0
BBX 10 18 0 -5
BITMAP
0000
3C00
2200
2200
3C00
2800
2400
2200
0000
0380
0440
0400
0380
0040
0440
0380
0000
0000
ENDCHAR

STARTCHAR onx31
ENCODING 31
SWIDTH 556 0
DWIDTH 10 0
BBX 10 18 0 -5
BITMAP
0000
2200
2200
2200
2200
2200
2200
1C00
0000
0380
0440
0400
0380
0040
0440
0380
0000
0000
ENDCHAR

STARTCHAR onx32
ENCODING 32
SWIDTH 556 0
DWIDTH 10 0
BBX 10 18 0 -5
BITMAP
0000
0000
0000
0000
0000
0000
0000
0000
0000
0000
0000
0000
0000
0000
0000
0000
0000
0000
ENDCHAR

STARTCHAR onx33
ENCODING 33
SWIDTH 556 0
DWIDTH 10 0
BBX 10 18 0 -5
BITMAP
0000
0400
0E00
0E00
0E00
0E00
0E00
0E00
0400
0400
0400
0000
0000
0400
0E00
0400
0000
0000
ENDCHAR

STARTCHAR onx34
ENCODING 34
SWIDTH 556 0
DWIDTH 10 0
BBX 10 18 0 -5
BITMAP
0000
1980
1980
0880
1100
0000
0000
0000
0000
0000
0000
0000
0000
0000
0000
0000
0000
0000
ENDCHAR

STARTCHAR onx35
ENCODING 35
SWIDTH 556 0
DWIDTH 10 0
BBX 10 18 0 -5
BITMAP
0000
0900
0900
0900
09C0
0F00
3900
0900
0900
09C0
0F00
3900
0900
0900
0900
0000
0000
0000
ENDCHAR

STARTCHAR onx36
ENCODING 36
SWIDTH 556 0
DWIDTH 10 0
BBX 10 18 0 -5
BITMAP
0000
0400
0E00
1500
2480
2480
2400
1400
0E00
0500
0480
2480
2480
1500
0E00
0400
0000
0000
ENDCHAR

STARTCHAR onx37
ENCODING 37
SWIDTH 556 0
DWIDTH 10 0
BBX 10 18 0 -5
BITMAP
0000
0040
1880
2480
2500
1900
0200
0200
0400
0400
0980
0A40
1240
1180
2000
0000
0000
0000
ENDCHAR

STARTCHAR onx38
ENCODING 38
SWIDTH 556 0
DWIDTH 10 0
BBX 10 18 0 -5
BITMAP
0000
0000
0C00
1200
1200
1200
1200
0C00
1800
2400
2400
2240
2180
1180
0E40
0000
0000
0000
ENDCHAR

STARTCHAR onx39
ENCODING 39
SWIDTH 556 0
DWIDTH 10 0
BBX 10 18 0 -5
BITMAP
0000
0C00
0C00
0400
0800
0000
0000
0000
0000
0000
0000
0000
0000
0000
0000
0000
0000
0000
ENDCHAR

STARTCHAR onx40
ENCODING 40
SWIDTH 556 0
DWIDTH 10 0
BBX 10 18 0 -5
BITMAP
0000
0080
0100
0200
0200
0400
0400
0400
0400
0400
0400
0400
0200
0200
0100
0080
0000
0000
ENDCHAR

STARTCHAR onx41
ENCODING 41
SWIDTH 556 0
DWIDTH 10 0
BBX 10 18 0 -5
BITMAP
0000
1000
0800
0400
0400
0200
0200
0200
0200
0200
0200
0200
0400
0400
0800
1000
0000
0000
ENDCHAR

STARTCHAR onx42
ENCODING 42
SWIDTH 556 0
DWIDTH 10 0
BBX 10 18 0 -5
BITMAP
0000
0000
0000
0000
0000
0400
2480
1500
0E00
1500
2480
0400
0000
0000
0000
0000
0000
0000
ENDCHAR

STARTCHAR onx43
ENCODING 43
SWIDTH 556 0
DWIDTH 10 0
BBX 10 18 0 -5
BITMAP
0000
0000
0000
0000
0000
0400
0400
0400
3F80
0400
0400
0400
0000
0000
0000
0000
0000
0000
ENDCHAR

STARTCHAR onx44
ENCODING 44
SWIDTH 556 0
DWIDTH 10 0
BBX 10 18 0 -5
BITMAP
0000
0000
0000
0000
0000
0000
0000
0000
0000
0000
0000
0000
0000
1800
1800
0800
1000
0000
ENDCHAR

STARTCHAR onx45
ENCODING 45
SWIDTH 556 0
DWIDTH 10 0
BBX 10 18 0 -5
BITMAP
0000
0000
0000
0000
0000
0000
0000
0000
3F80
0000
0000
0000
0000
0000
0000
0000
0000
0000
ENDCHAR

STARTCHAR onx46
ENCODING 46
SWIDTH 556 0
DWIDTH 10 0
BBX 10 18 0 -5
BITMAP
0000
0000
0000
0000
0000
0000
0000
0000
0000
0000
0000
0000
0000
0000
1800
1800
0000
0000
ENDCHAR

STARTCHAR onx47
ENCODING 47
SWIDTH 556 0
DWIDTH 10 0
BBX 10 18 0 -5
BITMAP
0000
0040
0080
0080
0100
0100
0200
0200
0400
0400
0800
0800
1000
1000
2000
0000
0000
0000
ENDCHAR

STARTCHAR onx48
ENCODING 48
SWIDTH 556 0
DWIDTH 10 0
BBX 10 18 0 -5
BITMAP
0000
0000
0E00
1100
1100
2080
2080
2080
2080
2080
2080
2080
1100
1100
0E00
0000
0000
0000
ENDCHAR

STARTCHAR onx49
ENCODING 49
SWIDTH 556 0
DWIDTH 10 0
BBX 10 18 0 -5
BITMAP
0000
0000
0400
0C00
1400
0400
0400
0400
0400
0400
0400
0400
0400
0400
1F00
0000
0000
0000
ENDCHAR

STARTCHAR onx50
ENCODING 50
SWIDTH 556 0
DWIDTH 10 0
BBX 10 18 0 -5
BITMAP
0000
0000
0E00
1100
2080
2080
0080
0100
0200
0400
0800
1000
2000
2080
3F80
0000
0000
0000
ENDCHAR

STARTCHAR onx51
ENCODING 51
SWIDTH 556 0
DWIDTH 10 0
BBX 10 18 0 -5
BITMAP
0000
0000
0E00
1100
2080
2080
0080
0100
0E00
0100
0080
0080
0080
2100
1E00
0000
0000
0000
ENDCHAR

STARTCHAR onx52
ENCODING 52
SWIDTH 556 0
DWIDTH 10 0
BBX 10 18 0 -5
BITMAP
0000
0000
0200
0200
0600
0600
0A00
0A00
1200
1200
2200
3F80
0200
0200
0700
0000
0000
0000
ENDCHAR

STARTCHAR onx53
ENCODING 53
SWIDTH 556 0
DWIDTH 10 0
BBX 10 18 0 -5
BITMAP
0000
0000
3F00
2000
2000
2000
2000
2E00
3100
2080
0080
0080
0080
2100
1E00
0000
0000
0000
ENDCHAR

STARTCHAR onx54
ENCODING 54
SWIDTH 556 0
DWIDTH 10 0
BBX 10 18 0 -5
BITMAP
0000
0000
0E00
1100
2080
2000
2000
2E00
3100
2080
2080
2080
2080
1100
0E00
0000
0000
0000
ENDCHAR

STARTCHAR onx55
ENCODING 55
SWIDTH 556 0
DWIDTH 10 0
BBX 10 18 0 -5
BITMAP
0000
0000
3F80
2080
2080
2100
0100
0200
0200
0400
0400
0400
0400
0400
0400
0000
0000
0000
ENDCHAR

STARTCHAR onx56
ENCODING 56
SWIDTH 556 0
DWIDTH 10 0
BBX 10 18 0 -5
BITMAP
0000
0000
0E00
1100
2080
2080
2080
1100
0E00
1100
2080
2080
2080
1100
0E00
0000
0000
0000
ENDCHAR

STARTCHAR onx57
ENCODING 57
SWIDTH 556 0
DWIDTH 10 0
BBX 10 18 0 -5
BITMAP
0000
0000
0E00
1100
2080
2080
2080
2080
1180
0E80
0080
2080
2080
1100
0E00
0000
0000
0000
ENDCHAR

STARTCHAR onx58
ENCODING 58
SWIDTH 556 0
DWIDTH 10 0
BBX 10 18 0 -5
BITMAP
0000
0000
0000
0000
0000
0000
0000
0600
0600
0000
0000
0000
0000
0600
0600
0000
0000
0000
ENDCHAR

STARTCHAR onx59
ENCODING 59
SWIDTH 556 0
DWIDTH 10 0
BBX 10 18 0 -5
BITMAP
0000
0000
0000
0000
0000
0000
0000
0600
0600
0000
0000
0000
0000
0600
0600
0200
0400
0000
ENDCHAR

STARTCHAR onx60
ENCODING 60
SWIDTH 556 0
DWIDTH 10 0
BBX 10 18 0 -5
BITMAP
0000
0000
0000
0080
0100
0200
0400
0800
1000
0800
0400
0200
0100
0080
0000
0000
0000
0000
ENDCHAR

STARTCHAR onx61
ENCODING 61
SWIDTH 556 0
DWIDTH 10 0
BBX 10 18 0 -5
BITMAP
0000
0000
0000
0000
0000
0000
3F80
0000
0000
0000
3F80
0000
0000
0000
0000
0000
0000
0000
ENDCHAR

STARTCHAR onx62
ENCODING 62
SWIDTH 556 0
DWIDTH 10 0
BBX 10 18 0 -5
BITMAP
0000
0000
0000
1000
0800
0400
0200
0100
0080
0100
0200
0400
0800
1000
0000
0000
0000
0000
ENDCHAR

STARTCHAR onx63
ENCODING 63
SWIDTH 556 0
DWIDTH 10 0
BBX 10 18 0 -5
BITMAP
0000
0000
0F00
1080
2040
2040
0040
0080
0100
0200
0400
0400
0000
0400
0E00
0400
0000
0000
ENDCHAR

STARTCHAR onx64
ENCODING 64
SWIDTH 556 0
DWIDTH 10 0
BBX 10 18 0 -5
BITMAP
0000
0000
0F00
1080
2040
2640
2940
2940
2940
2940
2980
2600
2040
1080
0F00
0000
0000
0000
ENDCHAR

STARTCHAR onx65
ENCODING 65
SWIDTH 556 0
DWIDTH 10 0
BBX 10 18 0 -5
BITMAP
0000
0000
0400
0400
0A00
0A00
0A00
1100
1100
1100
1F00
2080
2080
2080
71C0
0000
0000
0000
ENDCHAR

STARTCHAR onx66
ENCODING 66
SWIDTH 556 0
DWIDTH 10 0
BBX 10 18 0 -5
BITMAP
0000
0000
3F00
1080
1040
1040
1040
1080
1F00
1080
1040
1040
1040
1080
3F00
0000
0000
0000
ENDCHAR

STARTCHAR onx67
ENCODING 67
SWIDTH 556 0
DWIDTH 10 0
BBX 10 18 0 -5
BITMAP
0000
0000
0700
0880
1040
1000
2000
2000
2000
2000
2000
1040
1040
0880
0700
0000
0000
0000
ENDCHAR

STARTCHAR onx68
ENCODING 68
SWIDTH 556 0
DWIDTH 10 0
BBX 10 18 0 -5
BITMAP
0000
0000
3E00
1100
1080
1080
1040
1040
1040
1040
1040
1080
1080
1100
3E00
0000
0000
0000
ENDCHAR

STARTCHAR onx69
ENCODING 69
SWIDTH 556 0
DWIDTH 10 0
BBX 10 18 0 -5
BITMAP
0000
0000
3F80
1080
1040
1000
1100
1100
1F00
1100
1100
1000
1040
1080
3F80
0000
0000
0000
ENDCHAR

STARTCHAR onx70
ENCODING 70
SWIDTH 556 0
DWIDTH 10 0
BBX 10 18 0 -5
BITMAP
0000
0000
3F80
1080
1040
1000
1100
1100
1F00
1100
1100
1000
1000
1000
3C00
0000
0000
0000
ENDCHAR

STARTCHAR onx71
ENCODING 71
SWIDTH 556 0
DWIDTH 10 0
BBX 10 18 0 -5
BITMAP
0000
0000
0700
0880
1080
1000
2000
2000
2000
23C0
2080
1080
1080
0980
0680
0000
0000
0000
ENDCHAR

STARTCHAR onx72
ENCODING 72
SWIDTH 556 0
DWIDTH 10 0
BBX 10 18 0 -5
BITMAP
0000
0000
39C0
1080
1080
1080
1080
1080
1F80
1080
1080
1080
1080
1080
39C0
0000
0000
0000
ENDCHAR

STARTCHAR onx73
ENCODING 73
SWIDTH 556 0
DWIDTH 10 0
BBX 10 18 0 -5
BITMAP
0000
0000
0E00
0400
0400
0400
0400
0400
0400
0400
0400
0400
0400
0400
0E00
0000
0000
0000
ENDCHAR

STARTCHAR onx74
ENCODING 74
SWIDTH 556 0
DWIDTH 10 0
BBX 10 18 0 -5
BITMAP
0000
0000
0700
0200
0200
0200
0200
0200
0200
0200
0200
0200
3200
2200
1C00
0000
0000
0000
ENDCHAR

STARTCHAR onx75
ENCODING 75
SWIDTH 556 0
DWIDTH 10 0
BBX 10 18 0 -5
BITMAP
0000
0000
39C0
1080
1100
1100
1200
1200
1400
1A00
1200
1100
1100
1080
39C0
0000
0000
0000
ENDCHAR

STARTCHAR onx76
ENCODING 76
SWIDTH 556 0
DWIDTH 10 0
BBX 10 18 0 -5
BITMAP
0000
0000
3800
1000
1000
1000
1000
1000
1000
1000
1000
1000
1040
1080
3F80
0000
0000
0000
ENDCHAR

STARTCHAR onx77
ENCODING 77
SWIDTH 556 0
DWIDTH 10 0
BBX 10 18 0 -5
BITMAP
0000
0000
2080
2080
3180
3180
2A80
2A80
2480
2480
2080
2080
2080
2080
2080
0000
0000
0000
ENDCHAR

STARTCHAR onx78
ENCODING 78
SWIDTH 556 0
DWIDTH 10 0
BBX 10 18 0 -5
BITMAP
0000
0000
39C0
1880
1880
1480
1480
1480
1280
1280
1280
1180
1180
1080
3880
0000
0000
0000
ENDCHAR

STARTCHAR onx79
ENCODING 79
SWIDTH 556 0
DWIDTH 10 0
BBX 10 18 0 -5
BITMAP
0000
0000
1F00
2080
2080
2080
2080
2080
2080
2080
2080
2080
2080
2080
1F00
0000
0000
0000
ENDCHAR

STARTCHAR onx80
ENCODING 80
SWIDTH 556 0
DWIDTH 10 0
BBX 10 18 0 -5
BITMAP
0000
0000
3F00
1080
1040
1040
1040
1080
1F00
1000
1000
1000
1000
1000
3800
0000
0000
0000
ENDCHAR

STARTCHAR onx81
ENCODING 81
SWIDTH 556 0
DWIDTH 10 0
BBX 10 18 0 -5
BITMAP
0000
0000
0E00
1100
2080
2080
2080
2080
2080
2080
2080
2E80
3180
1100
0EC0
0000
0000
0000
ENDCHAR

STARTCHAR onx82
ENCODING 82
SWIDTH 556 0
DWIDTH 10 0
BBX 10 18 0 -5
BITMAP
0000
0000
3F00
1080
1040
1040
1040
1080
1F00
1200
1200
1100
1100
1080
39C0
0000
0000
0000
ENDCHAR

STARTCHAR onx83
ENCODING 83
SWIDTH 556 0
DWIDTH 10 0
BBX 10 18 0 -5
BITMAP
0000
0000
0E80
1180
2080
2000
2000
1000
0E00
0100
0080
2080
2080
1900
1600
0000
0000
0000
ENDCHAR

STARTCHAR onx84
ENCODING 84
SWIDTH 556 0
DWIDTH 10 0
BBX 10 18 0 -5
BITMAP
0000
0000
3F80
2480
2480
0400
0400
0400
0400
0400
0400
0400
0400
0400
0E00
0000
0000
0000
ENDCHAR

STARTCHAR onx85
ENCODING 85
SWIDTH 556 0
DWIDTH 10 0
BBX 10 18 0 -5
BITMAP
0000
0000
39C0
1080
1080
1080
1080
1080
1080
1080
1080
1080
1080
1080
0F00
0000
0000
0000
ENDCHAR

STARTCHAR onx86
ENCODING 86
SWIDTH 556 0
DWIDTH 10 0
BBX 10 18 0 -5
BITMAP
0000
0000
39C0
1080
1080
1080
1080
0900
0900
0900
0900
0600
0600
0600
0600
0000
0000
0000
ENDCHAR

STARTCHAR onx87
ENCODING 87
SWIDTH 556 0
DWIDTH 10 0
BBX 10 18 0 -5
BITMAP
0000
0000
2080
2080
2080
2080
2080
2480
2480
2A80
2A80
3180
3180
2080
2080
0000
0000
0000
ENDCHAR

STARTCHAR onx88
ENCODING 88
SWIDTH 556 0
DWIDTH 10 0
BBX 10 18 0 -5
BITMAP
0000
0000
39C0
1080
1080
0900
0900
0600
0600
0600
0900
0900
1080
1080
39C0
0000
0000
0000
ENDCHAR

STARTCHAR onx89
ENCODING 89
SWIDTH 556 0
DWIDTH 10 0
BBX 10 18 0 -5
BITMAP
0000
0000
3180
2080
2080
1100
1100
1100
0A00
0A00
0400
0400
0400
0400
0E00
0000
0000
0000
ENDCHAR

STARTCHAR onx90
ENCODING 90
SWIDTH 556 0
DWIDTH 10 0
BBX 10 18 0 -5
BITMAP
0000
0000
1FC0
1080
2080
0100
0100
0200
0400
0400
0800
0840
1040
1080
3F80
0000
0000
0000
ENDCHAR

STARTCHAR onx91
ENCODING 91
SWIDTH 556 0
DWIDTH 10 0
BBX 10 18 0 -5
BITMAP
0000
0780
0400
0400
0400
0400
0400
0400
0400
0400
0400
0400
0400
0400
0400
0780
0000
0000
ENDCHAR

STARTCHAR onx92
ENCODING 92
SWIDTH 556 0
DWIDTH 10 0
BBX 10 18 0 -5
BITMAP
0000
0000
3B80
1100
1100
1100
0A00
3F80
0A00
3F80
0400
0400
0400
0400
1F00
0000
0000
0000
ENDCHAR

STARTCHAR onx93
ENCODING 93
SWIDTH 556 0
DWIDTH 10 0
BBX 10 18 0 -5
BITMAP
0000
1E00
0200
0200
0200
0200
0200
0200
0200
0200
0200
0200
0200
0200
0200
1E00
0000
0000
ENDCHAR

STARTCHAR onx94
ENCODING 94
SWIDTH 556 0
DWIDTH 10 0
BBX 10 18 0 -5
BITMAP
0000
0400
0A00
1100
0000
0000
0000
0000
0000
0000
0000
0000
0000
0000
0000
0000
0000
0000
ENDCHAR

STARTCHAR onx95
ENCODING 95
SWIDTH 556 0
DWIDTH 10 0
BBX 10 18 0 -5
BITMAP
0000
0000
0000
0000
0000
0000
0000
0000
0000
0000
0000
0000
0000
0000
0000
3FC0
0000
0000
ENDCHAR

STARTCHAR onx96
ENCODING 96
SWIDTH 556 0
DWIDTH 10 0
BBX 10 18 0 -5
BITMAP
0000
0100
0200
0300
0300
0000
0000
0000
0000
0000
0000
0000
0000
0000
0000
0000
0000
0000
ENDCHAR

STARTCHAR onx97
ENCODING 97
SWIDTH 556 0
DWIDTH 10 0
BBX 10 18 0 -5
BITMAP
0000
0000
0000
0000
0000
0000
0000
0E00
1100
2100
0F00
1100
2100
2300
1D80
0000
0000
0000
ENDCHAR

STARTCHAR onx98
ENCODING 98
SWIDTH 556 0
DWIDTH 10 0
BBX 10 18 0 -5
BITMAP
0000
0000
3000
1000
1000
1000
1000
1700
1880
1040
1040
1040
1040
1880
1700
0000
0000
0000
ENDCHAR

STARTCHAR onx99
ENCODING 99
SWIDTH 556 0
DWIDTH 10 0
BBX 10 18 0 -5
BITMAP
0000
0000
0000
0000
0000
0000
0000
0E00
1100
2080
2000
2000
2080
1100
0E00
0000
0000
0000
ENDCHAR

STARTCHAR onx100
ENCODING 100
SWIDTH 556 0
DWIDTH 10 0
BBX 10 18 0 -5
BITMAP
0000
0000
0180
0080
0080
0080
0080
0E80
1180
2080
2080
2080
2080
1180
0EC0
0000
0000
0000
ENDCHAR

STARTCHAR onx101
ENCODING 101
SWIDTH 556 0
DWIDTH 10 0
BBX 10 18 0 -5
BITMAP
0000
0000
0000
0000
0000
0000
0000
0E00
1100
2080
3F80
2000
2080
1100
0E00
0000
0000
0000
ENDCHAR

STARTCHAR onx102
ENCODING 102
SWIDTH 556 0
DWIDTH 10 0
BBX 10 18 0 -5
BITMAP
0000
0000
0300
0480
0400
0400
0400
1F00
0400
0400
0400
0400
0400
0400
0E00
0000
0000
0000
ENDCHAR

STARTCHAR onx103
ENCODING 103
SWIDTH 556 0
DWIDTH 10 0
BBX 10 18 0 -5
BITMAP
0000
0000
0000
0000
0000
0000
0000
0EC0
1100
1100
0E00
1000
1F00
2080
2080
2080
1F00
0000
ENDCHAR

STARTCHAR onx104
ENCODING 104
SWIDTH 556 0
DWIDTH 10 0
BBX 10 18 0 -5
BITMAP
0000
0000
3000
1000
1000
1000
1000
1700
1880
1080
1080
1080
1080
1080
39C0
0000
0000
0000
ENDCHAR

STARTCHAR onx105
ENCODING 105
SWIDTH 556 0
DWIDTH 10 0
BBX 10 18 0 -5
BITMAP
0000
0000
0000
0000
0C00
0000
0000
0C00
0400
0400
0400
0400
0400
0400
0E00
0000
0000
0000
ENDCHAR

STARTCHAR onx106
ENCODING 106
SWIDTH 556 0
DWIDTH 10 0
BBX 10 18 0 -5
BITMAP
0000
0000
0000
0000
0600
0000
0000
0600
0200
0200
0200
0200
0200
0200
0200
1200
0C00
0000
ENDCHAR

STARTCHAR onx107
ENCODING 107
SWIDTH 556 0
DWIDTH 10 0
BBX 10 18 0 -5
BITMAP
0000
0000
3000
1000
1000
1000
1000
1380
1100
1200
1400
1C00
1200
1100
39C0
0000
0000
0000
ENDCHAR

STARTCHAR onx108
ENCODING 108
SWIDTH 556 0
DWIDTH 10 0
BBX 10 18 0 -5
BITMAP
0000
0000
0C00
0400
0400
0400
0400
0400
0400
0400
0400
0400
0400
0400
0E00
0000
0000
0000
ENDCHAR

STARTCHAR onx109
ENCODING 109
SWIDTH 556 0
DWIDTH 10 0
BBX 10 18 0 -5
BITMAP
0000
0000
0000
0000
0000
0000
0000
3B80
4440
4440
4440
4440
4440
4440
4440
0000
0000
0000
ENDCHAR

STARTCHAR onx110
ENCODING 110
SWIDTH 556 0
DWIDTH 10 0
BBX 10 18 0 -5
BITMAP
0000
0000
0000
0000
0000
0000
0000
3700
1880
1080
1080
1080
1080
1080
39C0
0000
0000
0000
ENDCHAR

STARTCHAR onx111
ENCODING 111
SWIDTH 556 0
DWIDTH 10 0
BBX 10 18 0 -5
BITMAP
0000
0000
0000
0000
0000
0000
0000
0E00
1100
2080
2080
2080
2080
1100
0E00
0000
0000
0000
ENDCHAR

STARTCHAR onx112
ENCODING 112
SWIDTH 556 0
DWIDTH 10 0
BBX 10 18 0 -5
BITMAP
0000
0000
0000
0000
0000
0000
0000
3700
1880
1040
1040
1040
1880
1700
1000
1000
3800
0000
ENDCHAR

STARTCHAR onx113
ENCODING 113
SWIDTH 556 0
DWIDTH 10 0
BBX 10 18 0 -5
BITMAP
0000
0000
0000
0000
0000
0000
0000
0E80
1180
2080
2080
2080
1180
0E80
0080
0080
01C0
0000
ENDCHAR

STARTCHAR onx114
ENCODING 114
SWIDTH 556 0
DWIDTH 10 0
BBX 10 18 0 -5
BITMAP
0000
0000
0000
0000
0000
0000
0000
1B80
0C40
0800
0800
0800
0800
0800
1C00
0000
0000
0000
ENDCHAR

STARTCHAR onx115
ENCODING 115
SWIDTH 556 0
DWIDTH 10 0
BBX 10 18 0 -5
BITMAP
0000
0000
0000
0000
0000
0000
0000
1F00
2080
2000
1F00
0080
2080
2080
1F00
0000
0000
0000
ENDCHAR

STARTCHAR onx116
ENCODING 116
SWIDTH 556 0
DWIDTH 10 0
BBX 10 18 0 -5
BITMAP
0000
0000
0000
0400
0400
0400
0400
1F00
0400
0400
0400
0400
0400
0480
0300
0000
0000
0000
ENDCHAR

STARTCHAR onx117
ENCODING 117
SWIDTH 556 0
DWIDTH 10 0
BBX 10 18 0 -5
BITMAP
0000
0000
0000
0000
0000
0000
0000
3180
1080
1080
1080
1080
1080
1180
0EC0
0000
0000
0000
ENDCHAR

STARTCHAR onx118
ENCODING 118
SWIDTH 556 0
DWIDTH 10 0
BBX 10 18 0 -5
BITMAP
0000
0000
0000
0000
0000
0000
0000
39C0
1080
1080
0900
0900
0900
0600
0600
0000
0000
0000
ENDCHAR

STARTCHAR onx119
ENCODING 119
SWIDTH 556 0
DWIDTH 10 0
BBX 10 18 0 -5
BITMAP
0000
0000
0000
0000
0000
0000
0000
2080
2080
2080
2080
2480
2A80
3180
2080
0000
0000
0000
ENDCHAR

STARTCHAR onx120
ENCODING 120
SWIDTH 556 0
DWIDTH 10 0
BBX 10 18 0 -5
BITMAP
0000
0000
0000
0000
0000
0000
0000
39C0
1080
0900
0600
0600
0900
1080
39C0
0000
0000
0000
ENDCHAR

STARTCHAR onx121
ENCODING 121
SWIDTH 556 0
DWIDTH 10 0
BBX 10 18 0 -5
BITMAP
0000
0000
0000
0000
0000
0000
0000
39C0
1080
1080
0900
0900
0A00
0600
0400
2400
1800
0000
ENDCHAR

STARTCHAR onx122
ENCODING 122
SWIDTH 556 0
DWIDTH 10 0
BBX 10 18 0 -5
BITMAP
0000
0000
0000
0000
0000
0000
0000
1FC0
1080
2100
0200
0400
0840
1080
3F80
0000
0000
0000
ENDCHAR

STARTCHAR onx123
ENCODING 123
SWIDTH 556 0
DWIDTH 10 0
BBX 10 18 0 -5
BITMAP
0000
0080
0100
0200
0200
0200
0200
0400
0800
0400
0200
0200
0200
0200
0100
0080
0000
0000
ENDCHAR

STARTCHAR onx124
ENCODING 124
SWIDTH 556 0
DWIDTH 10 0
BBX 10 18 0 -5
BITMAP
0000
0400
0400
0400
0400
0400
0400
0400
0400
0400
0400
0400
0400
0400
0400
0000
0000
0000
ENDCHAR

STARTCHAR onx125
ENCODING 125
SWIDTH 556 0
DWIDTH 10 0
BBX 10 18 0 -5
BITMAP
0000
1000
0800
0400
0400
0400
0400
0200
0100
0200
0400
0400
0400
0400
0800
1000
0000
0000
ENDCHAR

STARTCHAR onx126
ENCODING 126
SWIDTH 556 0
DWIDTH 10 0
BBX 10 18 0 -5
BITMAP
0000
0000
0000
0000
0000
0000
0000
0C00
1240
2180
0000
0000
0000
0000
0000
0000
0000
0000
ENDCHAR

STARTCHAR onx127
ENCODING 127
SWIDTH 556 0
DWIDTH 10 0
BBX 10 18 0 -5
BITMAP
0000
2A80
1540
2A80
1540
2A80
1540
2A80
1540
2A80
1540
2A80
1540
2A80
1540
2A80
1540
0000
ENDCHAR

STARTCHAR onx128
ENCODING 128
SWIDTH 556 0
DWIDTH 10 0
BBX 10 18 0 -5
BITMAP
0000
1C00
2200
2200
1C00
2200
2200
1C00
0000
0380
0440
0440
0440
0440
0440
0380
0000
0000
ENDCHAR

STARTCHAR onx129
ENCODING 129
SWIDTH 556 0
DWIDTH 10 0
BBX 10 18 0 -5
BITMAP
0000
1C00
2200
2200
1C00
2200
2200
1C00
0000
0100
0300
0100
0100
0100
0100
0380
0000
0000
ENDCHAR

STARTCHAR onx130
ENCODING 130
SWIDTH 556 0
DWIDTH 10 0
BBX 10 18 0 -5
BITMAP
0000
1C00
2200
2200
1C00
2200
2200
1C00
0000
0380
0440
0440
0080
0100
0200
07C0
0000
0000
ENDCHAR

STARTCHAR onx131
ENCODING 131
SWIDTH 556 0
DWIDTH 10 0
BBX 10 18 0 -5
BITMAP
0000
1C00
2200
2200
1C00
2200
2200
1C00
0000
0380
0440
0040
0180
0040
0440
0380
0000
0000
ENDCHAR

STARTCHAR onx132
ENCODING 132
SWIDTH 556 0
DWIDTH 10 0
BBX 10 18 0 -5
BITMAP
0000
1C00
2200
2200
1C00
2200
2200
1C00
0000
0080
0180
0280
0480
07C0
0080
0080
0000
0000
ENDCHAR

STARTCHAR onx133
ENCODING 133
SWIDTH 556 0
DWIDTH 10 0
BBX 10 18 0 -5
BITMAP
0000
1C00
2200
2200
1C00
2200
2200
1C00
0000
07C0
0400
0400
0780
0040
0440
0380
0000
0000
ENDCHAR

STARTCHAR onx134
ENCODING 134
SWIDTH 556 0
DWIDTH 10 0
BBX 10 18 0 -5
BITMAP
0000
1C00
2200
2200
1C00
2200
2200
1C00
0000
0380
0440
0400
0780
0440
0440
0380
0000
0000
ENDCHAR

STARTCHAR onx135
ENCODING 135
SWIDTH 556 0
DWIDTH 10 0
BBX 10 18 0 -5
BITMAP
0000
1C00
2200
2200
1C00
2200
2200
1C00
0000
07C0
0040
0080
0080
0100
0100
0100
0000
0000
ENDCHAR

STARTCHAR onx136
ENCODING 136
SWIDTH 556 0
DWIDTH 10 0
BBX 10 18 0 -5
BITMAP
0000
1C00
2200
2200
1C00
2200
2200
1C00
0000
0380
0440
0440
0380
0440
0440
0380
0000
0000
ENDCHAR

STARTCHAR onx137
ENCODING 137
SWIDTH 556 0
DWIDTH 10 0
BBX 10 18 0 -5
BITMAP
0000
1C00
2200
2200
1C00
2200
2200
1C00
0000
0380
0440
0440
03C0
0040
0440
0380
0000
0000
ENDCHAR

STARTCHAR onx138
ENCODING 138
SWIDTH 556 0
DWIDTH 10 0
BBX 10 18 0 -5
BITMAP
0000
1C00
2200
2200
1C00
2200
2200
1C00
0000
0100
0280
0440
0440
07C0
0440
0440
0000
0000
ENDCHAR

STARTCHAR onx139
ENCODING 139
SWIDTH 556 0
DWIDTH 10 0
BBX 10 18 0 -5
BITMAP
0000
1C00
2200
2200
1C00
2200
2200
1C00
0000
0780
0240
0240
0380
0240
0240
0780
0000
0000
ENDCHAR

STARTCHAR onx140
ENCODING 140
SWIDTH 556 0
DWIDTH 10 0
BBX 10 18 0 -5
BITMAP
0000
1C00
2200
2200
1C00
2200
2200
1C00
0000
0380
0440
0400
0400
0400
0440
0380
0000
0000
ENDCHAR

STARTCHAR onx141
ENCODING 141
SWIDTH 556 0
DWIDTH 10 0
BBX 10 18 0 -5
BITMAP
0000
1C00
2200
2200
1C00
2200
2200
1C00
0000
0780
0440
0440
0440
0440
0440
0780
0000
0000
ENDCHAR

STARTCHAR onx142
ENCODING 142
SWIDTH 556 0
DWIDTH 10 0
BBX 10 18 0 -5
BITMAP
0000
1C00
2200
2200
1C00
2200
2200
1C00
0000
07C0
0400
0400
0780
0400
0400
07C0
0000
0000
ENDCHAR

STARTCHAR onx143
ENCODING 143
SWIDTH 556 0
DWIDTH 10 0
BBX 10 18 0 -5
BITMAP
0000
1C00
2200
2200
1C00
2200
2200
1C00
0000
07C0
0400
0400
0780
0400
0400
0400
0000
0000
ENDCHAR

STARTCHAR onx144
ENCODING 144
SWIDTH 556 0
DWIDTH 10 0
BBX 10 18 0 -5
BITMAP
0000
1C00
2200
2200
1E00
0200
2200
1C00
0000
0380
0440
0440
0440
0440
0440
0380
0000
0000
ENDCHAR

STARTCHAR onx145
ENCODING 145
SWIDTH 556 0
DWIDTH 10 0
BBX 10 18 0 -5
BITMAP
0000
1C00
2200
2200
1E00
0200
2200
1C00
0000
0100
0300
0100
0100
0100
0100
0380
0000
0000
ENDCHAR

STARTCHAR onx146
ENCODING 146
SWIDTH 556 0
DWIDTH 10 0
BBX 10 18 0 -5
BITMAP
0000
1C00
2200
2200
1E00
0200
2200
1C00
0000
0380
0440
0440
0080
0100
0200
07C0
0000
0000
ENDCHAR

STARTCHAR onx147
ENCODING 147
SWIDTH 556 0
DWIDTH 10 0
BBX 10 18 0 -5
BITMAP
0000
1C00
2200
2200
1E00
0200
2200
1C00
0000
0380
0440
0040
0180
0040
0440
0380
0000
0000
ENDCHAR

STARTCHAR onx148
ENCODING 148
SWIDTH 556 0
DWIDTH 10 0
BBX 10 18 0 -5
BITMAP
0000
1C00
2200
2200
1E00
0200
2200
1C00
0000
0080
0180
0280
0480
07C0
0080
0080
0000
0000
ENDCHAR

STARTCHAR onx149
ENCODING 149
SWIDTH 556 0
DWIDTH 10 0
BBX 10 18 0 -5
BITMAP
0000
1C00
2200
2200
1E00
0200
2200
1C00
0000
07C0
0400
0400
0780
0040
0440
0380
0000
0000
ENDCHAR

STARTCHAR onx150
ENCODING 150
SWIDTH 556 0
DWIDTH 10 0
BBX 10 18 0 -5
BITMAP
0000
1C00
2200
2200
1E00
0200
2200
1C00
0000
0380
0440
0400
0780
0440
0440
0380
0000
0000
ENDCHAR

STARTCHAR onx151
ENCODING 151
SWIDTH 556 0
DWIDTH 10 0
BBX 10 18 0 -5
BITMAP
0000
1C00
2200
2200
1E00
0200
2200
1C00
0000
07C0
0040
0080
0080
0100
0100
0100
0000
0000
ENDCHAR

STARTCHAR onx152
ENCODING 152
SWIDTH 556 0
DWIDTH 10 0
BBX 10 18 0 -5
BITMAP
0000
1C00
2200
2200
1E00
0200
2200
1C00
0000
0380
0440
0440
0380
0440
0440
0380
0000
0000
ENDCHAR

STARTCHAR onx153
ENCODING 153
SWIDTH 556 0
DWIDTH 10 0
BBX 10 18 0 -5
BITMAP
0000
1C00
2200
2200
1E00
0200
2200
1C00
0000
0380
0440
0440
03C0
0040
0440
0380
0000
0000
ENDCHAR

STARTCHAR onx154
ENCODING 154
SWIDTH 556 0
DWIDTH 10 0
BBX 10 18 0 -5
BITMAP
0000
1C00
2200
2200
1E00
0200
2200
1C00
0000
0100
0280
0440
0440
07C0
0440
0440
0000
0000
ENDCHAR

STARTCHAR onx155
ENCODING 155
SWIDTH 556 0
DWIDTH 10 0
BBX 10 18 0 -5
BITMAP
0000
1C00
2200
2200
1E00
0200
2200
1C00
0000
0780
0240
0240
0380
0240
0240
0780
0000
0000
ENDCHAR

STARTCHAR onx156
ENCODING 156
SWIDTH 556 0
DWIDTH 10 0
BBX 10 18 0 -5
BITMAP
0000
1C00
2200
2200
1E00
0200
2200
1C00
0000
0380
0440
0400
0400
0400
0440
0380
0000
0000
ENDCHAR

STARTCHAR onx157
ENCODING 157
SWIDTH 556 0
DWIDTH 10 0
BBX 10 18 0 -5
BITMAP
0000
1C00
2200
2200
1E00
0200
2200
1C00
0000
0780
0440
0440
0440
0440
0440
0780
0000
0000
ENDCHAR

STARTCHAR onx158
ENCODING 158
SWIDTH 556 0
DWIDTH 10 0
BBX 10 18 0 -5
BITMAP
0000
1C00
2200
2200
1E00
0200
2200
1C00
0000
07C0
0400
0400
0780
0400
0400
07C0
0000
0000
ENDCHAR

STARTCHAR onx159
ENCODING 159
SWIDTH 556 0
DWIDTH 10 0
BBX 10 18 0 -5
BITMAP
0000
1C00
2200
2200
1E00
0200
2200
1C00
0000
07C0
0400
0400
0780
0400
0400
0400
0000
0000
ENDCHAR

STARTCHAR onx160
ENCODING 160
SWIDTH 556 0
DWIDTH 10 0
BBX 10 18 0 -5
BITMAP
0000
0800
1400
2200
2200
3E00
2200
2200
0000
0380
0440
0440
0440
0440
0440
0380
0000
0000
ENDCHAR

STARTCHAR onx161
ENCODING 161
SWIDTH 556 0
DWIDTH 10 0
BBX 10 18 0 -5
BITMAP
0000
0000
0000
0000
0000
0000
0000
0000
0000
0000
0000
0000
0C00
1200
1200
0C00
0000
0000
ENDCHAR

STARTCHAR onx162
ENCODING 162
SWIDTH 556 0
DWIDTH 10 0
BBX 10 18 0 -5
BITMAP
0000
07C0
0400
0400
0400
0400
0400
0400
0400
0400
0400
0400
0400
0400
0400
0400
0000
0000
ENDCHAR

STARTCHAR onx163
ENCODING 163
SWIDTH 556 0
DWIDTH 10 0
BBX 10 18 0 -5
BITMAP
0000
0200
0200
0200
0200
0200
0200
0200
0200
0200
0200
0200
0200
0200
0200
3E00
0000
0000
ENDCHAR

STARTCHAR onx164
ENCODING 164
SWIDTH 556 0
DWIDTH 10 0
BBX 10 18 0 -5
BITMAP
0000
0000
0000
0000
0000
0000
0000
0000
0000
0000
0000
0000
1000
0C00
0600
0600
0000
0000
ENDCHAR

STARTCHAR onx165
ENCODING 165
SWIDTH 556 0
DWIDTH 10 0
BBX 10 18 0 -5
BITMAP
0000
0000
0000
0000
0000
0000
0000
0000
0600
0600
0000
0000
0000
0000
0000
0000
0000
0000
ENDCHAR

STARTCHAR onx166
ENCODING 166
SWIDTH 556 0
DWIDTH 10 0
BBX 10 18 0 -5
BITMAP
0000
0000
0000
3F80
0080
0080
0080
0080
1F00
0100
0100
0200
0200
0400
0800
0000
0000
0000
ENDCHAR

STARTCHAR onx167
ENCODING 167
SWIDTH 556 0
DWIDTH 10 0
BBX 10 18 0 -5
BITMAP
0000
0000
0000
0000
0000
0000
0000
0000
3F80
0080
0500
0600
0400
0800
1000
0000
0000
0000
ENDCHAR

STARTCHAR onx168
ENCODING 168
SWIDTH 556 0
DWIDTH 10 0
BBX 10 18 0 -5
BITMAP
0000
0000
0000
0000
0000
0000
0000
0080
0100
0200
0600
0A00
1200
0200
0200
0000
0000
0000
ENDCHAR

STARTCHAR onx169
ENCODING 169
SWIDTH 556 0
DWIDTH 10 0
BBX 10 18 0 -5
BITMAP
0000
0000
0000
0000
0000
0000
0000
0400
0400
3F80
2080
2080
0100
0200
0400
0000
0000
0000
ENDCHAR

STARTCHAR onx170
ENCODING 170
SWIDTH 556 0
DWIDTH 10 0
BBX 10 18 0 -5
BITMAP
0000
0000
0000
0000
0000
0000
0000
0000
0000
1F00
0400
0400
0400
3F80
0000
0000
0000
0000
ENDCHAR

STARTCHAR onx171
ENCODING 171
SWIDTH 556 0
DWIDTH 10 0
BBX 10 18 0 -5
BITMAP
0000
0000
0000
0000
0000
0000
0000
0200
0200
3F80
0600
0A00
1200
2200
0600
0000
0000
0000
ENDCHAR

STARTCHAR onx172
ENCODING 172
SWIDTH 556 0
DWIDTH 10 0
BBX 10 18 0 -5
BITMAP
0000
0000
0000
0000
0000
0000
0000
0800
0800
3F80
0880
0900
0800
0800
0800
0000
0000
0000
ENDCHAR

STARTCHAR onx173
ENCODING 173
SWIDTH 556 0
DWIDTH 10 0
BBX 10 18 0 -5
BITMAP
0000
0000
0000
0000
0000
0000
0000
0000
0000
1E00
0200
0200
0200
3F80
0000
0000
0000
0000
ENDCHAR

STARTCHAR onx174
ENCODING 174
SWIDTH 556 0
DWIDTH 10 0
BBX 10 18 0 -5
BITMAP
0000
0000
0000
0000
0000
0000
0000
0000
0000
1F80
0080
1F80
0080
1F80
0000
0000
0000
0000
ENDCHAR

STARTCHAR onx175
ENCODING 175
SWIDTH 556 0
DWIDTH 10 0
BBX 10 18 0 -5
BITMAP
0000
0000
0000
0000
0000
0000
0000
0000
0880
2480
1080
0100
0100
0200
0400
0000
0000
0000
ENDCHAR

STARTCHAR onx176
ENCODING 176
SWIDTH 556 0
DWIDTH 10 0
BBX 10 18 0 -5
BITMAP
0000
0000
0000
0000
0000
0000
0000
0000
2000
1FC0
0000
0000
0000
0000
0000
0000
0000
0000
ENDCHAR

STARTCHAR onx177
ENCODING 177
SWIDTH 556 0
DWIDTH 10 0
BBX 10 18 0 -5
BITMAP
0000
0000
0000
3FC0
0040
0040
0480
0500
0600
0400
0400
0400
0800
0800
1000
0000
0000
0000
ENDCHAR

STARTCHAR onx178
ENCODING 178
SWIDTH 556 0
DWIDTH 10 0
BBX 10 18 0 -5
BITMAP
0000
0000
0040
0040
0080
0100
0300
0500
0900
1100
2100
0100
0100
0100
0100
0000
0000
0000
ENDCHAR

STARTCHAR onx179
ENCODING 179
SWIDTH 556 0
DWIDTH 10 0
BBX 10 18 0 -5
BITMAP
0000
0000
0400
0400
3F80
2080
2080
2080
0080
0100
0100
0200
0200
0400
0800
0000
0000
0000
ENDCHAR

STARTCHAR onx180
ENCODING 180
SWIDTH 556 0
DWIDTH 10 0
BBX 10 18 0 -5
BITMAP
0000
0000
0000
0000
3F80
0400
0400
0400
0400
0400
0400
0400
0400
3F80
0000
0000
0000
0000
ENDCHAR

STARTCHAR onx181
ENCODING 181
SWIDTH 556 0
DWIDTH 10 0
BBX 10 18 0 -5
BITMAP
0000
0000
0100
0100
0100
3FC0
0300
0300
0500
0500
0900
0900
1100
2300
0100
0000
0000
0000
ENDCHAR

STARTCHAR onx182
ENCODING 182
SWIDTH 556 0
DWIDTH 10 0
BBX 10 18 0 -5
BITMAP
0000
0000
0400
0400
0400
1FC0
0440
0440
0440
0440
0840
0880
0880
1480
2300
0000
0000
0000
ENDCHAR

STARTCHAR onx183
ENCODING 183
SWIDTH 556 0
DWIDTH 10 0
BBX 10 18 0 -5
BITMAP
0000
0000
0800
0800
0800
3F80
0400
0400
0400
3F80
0200
0200
0200
0200
0200
0000
0000
0000
ENDCHAR

STARTCHAR onx184
ENCODING 184
SWIDTH 556 0
DWIDTH 10 0
BBX 10 18 0 -5
BITMAP
0000
0000
0400
0400
07C0
0840
1040
2080
0080
0100
0100
0200
0400
0800
1000
0000
0000
0000
ENDCHAR

STARTCHAR onx185
ENCODING 185
SWIDTH 556 0
DWIDTH 10 0
BBX 10 18 0 -5
BITMAP
0000
0000
0800
0800
0800
0FC0
1100
2100
0100
0200
0200
0400
0400
0800
1000
0000
0000
0000
ENDCHAR

STARTCHAR onx186
ENCODING 186
SWIDTH 556 0
DWIDTH 10 0
BBX 10 18 0 -5
BITMAP
0000
0000
0000
0000
3F80
0080
0080
0080
0080
0080
0080
0080
0080
3F80
0000
0000
0000
0000
ENDCHAR

STARTCHAR onx187
ENCODING 187
SWIDTH 556 0
DWIDTH 10 0
BBX 10 18 0 -5
BITMAP
0000
0000
0900
0900
0900
3FC0
0900
0900
0900
0100
0100
0200
0200
0400
0800
0000
0000
0000
ENDCHAR

STARTCHAR onx188
ENCODING 188
SWIDTH 556 0
DWIDTH 10 0
BBX 10 18 0 -5
BITMAP
0000
0000
0000
1800
0400
0000
0000
3000
0840
0040
0080
0100
2600
3800
0000
0000
0000
0000
ENDCHAR

STARTCHAR onx189
ENCODING 189
SWIDTH 556 0
DWIDTH 10 0
BBX 10 18 0 -5
BITMAP
0000
0000
0000
1F80
0080
0080
0100
0100
0200
0200
0500
0480
0880
1040
2040
0000
0000
0000
ENDCHAR

STARTCHAR onx190
ENCODING 190
SWIDTH 556 0
DWIDTH 10 0
BBX 10 18 0 -5
BITMAP
0000
0000
0800
0800
0800
3FC0
0840
0880
0900
0800
0800
0800
0800
07C0
0000
0000
0000
0000
ENDCHAR

STARTCHAR onx191
ENCODING 191
SWIDTH 556 0
DWIDTH 10 0
BBX 10 18 0 -5
BITMAP
0000
0000
0000
00C0
2040
1040
0840
0040
0080
0080
0100
0100
0200
0400
0800
0000
0000
0000
ENDCHAR

STARTCHAR onx192
ENCODING 192
SWIDTH 556 0
DWIDTH 10 0
BBX 10 18 0 -5
BITMAP
0000
0000
0400
0400
07C0
0840
1040
2080
0480
0300
0100
0200
0400
0800
1000
0000
0000
0000
ENDCHAR

STARTCHAR onx193
ENCODING 193
SWIDTH 556 0
DWIDTH 10 0
BBX 10 18 0 -5
BITMAP
0000
0000
0000
0380
1E00
0200
0200
3FC0
0200
0200
0200
0400
0400
0800
1000
0000
0000
0000
ENDCHAR

STARTCHAR onx194
ENCODING 194
SWIDTH 556 0
DWIDTH 10 0
BBX 10 18 0 -5
BITMAP
0000
0000
0000
08C0
4440
2440
2040
0040
0080
0080
0100
0100
0200
0400
0800
0000
0000
0000
ENDCHAR

STARTCHAR onx195
ENCODING 195
SWIDTH 556 0
DWIDTH 10 0
BBX 10 18 0 -5
BITMAP
0000
0000
0000
1F80
0000
0000
3FC0
0200
0200
0200
0200
0400
0400
0800
1000
0000
0000
0000
ENDCHAR

STARTCHAR onx196
ENCODING 196
SWIDTH 556 0
DWIDTH 10 0
BBX 10 18 0 -5
BITMAP
0000
0000
1000
0800
0800
0800
0800
0E00
0900
0880
0800
0800
0800
0800
0800
0000
0000
0000
ENDCHAR

STARTCHAR onx197
ENCODING 197
SWIDTH 556 0
DWIDTH 10 0
BBX 10 18 0 -5
BITMAP
0000
0000
0200
0200
0200
3FC0
0200
0200
0200
0200
0200
0400
0400
0800
1000
0000
0000
0000
ENDCHAR

STARTCHAR onx198
ENCODING 198
SWIDTH 556 0
DWIDTH 10 0
BBX 10 18 0 -5
BITMAP
0000
0000
0000
0000
1F80
0000
0000
0000
0000
0000
0000
0000
0000
3FC0
0000
0000
0000
0000
ENDCHAR

STARTCHAR onx199
ENCODING 199
SWIDTH 556 0
DWIDTH 10 0
BBX 10 18 0 -5
BITMAP
0000
0000
0000
1F80
0080
0080
0080
0100
0900
0600
0200
0500
0880
1000
2000
0000
0000
0000
ENDCHAR

STARTCHAR onx200
ENCODING 200
SWIDTH 556 0
DWIDTH 10 0
BBX 10 18 0 -5
BITMAP
0000
0000
0400
0200
0000
1F80
0080
0100
0200
0700
0A80
1240
2200
0200
0200
0000
0000
0000
ENDCHAR

STARTCHAR onx201
ENCODING 201
SWIDTH 556 0
DWIDTH 10 0
BBX 10 18 0 -5
BITMAP
0000
0000
0000
0080
0040
0040
0040
0080
0080
0100
0100
0200
0400
0800
1000
0000
0000
0000
ENDCHAR

STARTCHAR onx202
ENCODING 202
SWIDTH 556 0
DWIDTH 10 0
BBX 10 18 0 -5
BITMAP
0000
0000
0000
0200
0100
0880
0880
0840
0840
0840
0840
0840
1040
1040
2040
0000
0000
0000
ENDCHAR

STARTCHAR onx203
ENCODING 203
SWIDTH 556 0
DWIDTH 10 0
BBX 10 18 0 -5
BITMAP
0000
0000
1000
1000
1000
1380
1C00
1000
1000
1000
1000
1000
1000
0FC0
0000
0000
0000
0000
ENDCHAR

STARTCHAR onx204
ENCODING 204
SWIDTH 556 0
DWIDTH 10 0
BBX 10 18 0 -5
BITMAP
0000
0000
0000
3F80
0080
0080
0080
0080
0100
0100
0200
0200
0400
0800
1000
0000
0000
0000
ENDCHAR

STARTCHAR onx205
ENCODING 205
SWIDTH 556 0
DWIDTH 10 0
BBX 10 18 0 -5
BITMAP
0000
0000
0000
0800
1400
2200
0100
0100
0080
0080
0040
0040
0040
0040
0040
0000
0000
0000
ENDCHAR

STARTCHAR onx206
ENCODING 206
SWIDTH 556 0
DWIDTH 10 0
BBX 10 18 0 -5
BITMAP
0000
0000
0200
0200
0200
1FC0
0200
0200
0200
1280
1240
1240
2240
0600
0200
0000
0000
0000
ENDCHAR

STARTCHAR onx207
ENCODING 207
SWIDTH 556 0
DWIDTH 10 0
BBX 10 18 0 -5
BITMAP
0000
0000
0000
0000
3FC0
0040
0040
0080
0080
0900
0600
0200
0100
0080
0080
0000
0000
0000
ENDCHAR

STARTCHAR onx208
ENCODING 208
SWIDTH 556 0
DWIDTH 10 0
BBX 10 18 0 -5
BITMAP
0000
0000
0000
0E00
0100
0000
0000
0C00
0200
0000
0000
1800
0600
0100
0080
0000
0000
0000
ENDCHAR

STARTCHAR onx209
ENCODING 209
SWIDTH 556 0
DWIDTH 10 0
BBX 10 18 0 -5
BITMAP
0000
0000
0000
0200
0200
0400
0400
0800
0800
1000
1000
2080
2040
3FC0
0000
0000
0000
0000
ENDCHAR

STARTCHAR onx210
ENCODING 210
SWIDTH 556 0
DWIDTH 10 0
BBX 10 18 0 -5
BITMAP
0000
0000
0080
0080
0080
0080
1900
0500
0200
0300
0480
0480
0800
1000
2000
0000
0000
0000
ENDCHAR

STARTCHAR onx211
ENCODING 211
SWIDTH 556 0
DWIDTH 10 0
BBX 10 18 0 -5
BITMAP
0000
0000
0000
1F80
0400
0400
0400
3FC0
0400
0400
0400
0400
0400
03C0
0000
0000
0000
0000
ENDCHAR

STARTCHAR onx212
ENCODING 212
SWIDTH 556 0
DWIDTH 10 0
BBX 10 18 0 -5
BITMAP
0000
0000
1000
1000
1000
3FC0
0840
0880
0900
0800
0400
0400
0400
0400
0400
0000
0000
0000
ENDCHAR

STARTCHAR onx213
ENCODING 213
SWIDTH 556 0
DWIDTH 10 0
BBX 10 18 0 -5
BITMAP
0000
0000
0000
0000
1F00
0100
0100
0100
0100
0200
0200
0200
0200
3FC0
0000
0000
0000
0000
ENDCHAR

STARTCHAR onx214
ENCODING 214
SWIDTH 556 0
DWIDTH 10 0
BBX 10 18 0 -5
BITMAP
0000
0000
0000
0000
1F80
0080
0080
0080
0F80
0080
0080
0080
0080
1F80
0000
0000
0000
0000
ENDCHAR

STARTCHAR onx215
ENCODING 215
SWIDTH 556 0
DWIDTH 10 0
BBX 10 18 0 -5
BITMAP
0000
0000
0000
1F80
0000
0000
0000
3FC0
0040
0040
0080
0080
0100
0200
0400
0000
0000
0000
ENDCHAR

STARTCHAR onx216
ENCODING 216
SWIDTH 556 0
DWIDTH 10 0
BBX 10 18 0 -5
BITMAP
0000
0000
0000
1080
1080
1080
1080
1080
0080
0080
0080
0100
0100
0200
0400
0000
0000
0000
ENDCHAR

STARTCHAR onx217
ENCODING 217
SWIDTH 556 0
DWIDTH 10 0
BBX 10 18 0 -5
BITMAP
0000
0000
0000
0400
2400
2400
2400
2400
2440
2440
2440
2480
2480
2500
4600
0000
0000
0000
ENDCHAR

STARTCHAR onx218
ENCODING 218
SWIDTH 556 0
DWIDTH 10 0
BBX 10 18 0 -5
BITMAP
0000
0000
0000
0800
0800
0800
0800
0840
0840
0880
0880
0900
0900
0A00
0C00
0000
0000
0000
ENDCHAR

STARTCHAR onx219
ENCODING 219
SWIDTH 556 0
DWIDTH 10 0
BBX 10 18 0 -5
BITMAP
0000
0000
0000
0000
3F80
2080
2080
2080
2080
2080
2080
2080
2080
3F80
0000
0000
0000
0000
ENDCHAR

STARTCHAR onx220
ENCODING 220
SWIDTH 556 0
DWIDTH 10 0
BBX 10 18 0 -5
BITMAP
0000
0000
0000
3F80
2080
2080
2080
0080
0080
0100
0100
0200
0200
0400
0800
0000
0000
0000
ENDCHAR

STARTCHAR onx221
ENCODING 221
SWIDTH 556 0
DWIDTH 10 0
BBX 10 18 0 -5
BITMAP
0000
0000
0000
1800
0400
0200
0000
0000
0040
0040
0080
0100
2600
3800
0000
0000
0000
0000
ENDCHAR

STARTCHAR onx222
ENCODING 222
SWIDTH 556 0
DWIDTH 10 0
BBX 10 18 0 -5
BITMAP
0000
0200
1100
0900
0800
0000
0000
0000
0000
0000
0000
0000
0000
0000
0000
0000
0000
0000
ENDCHAR

STARTCHAR onx223
ENCODING 223
SWIDTH 556 0
DWIDTH 10 0
BBX 10 18 0 -5
BITMAP
0000
0C00
1200
1200
0C00
0000
0000
0000
0000
0000
0000
0000
0000
0000
0000
0000
0000
0000
ENDCHAR

STARTCHAR onx224
ENCODING 224
SWIDTH 556 0
DWIDTH 10 0
BBX 10 18 0 -5
BITMAP
0000
3E00
2000
2000
3C00
2000
2000
3E00
0000
0380
0440
0440
0440
0440
0440
0380
0000
0000
ENDCHAR

STARTCHAR onx225
ENCODING 225
SWIDTH 556 0
DWIDTH 10 0
BBX 10 18 0 -5
BITMAP
0000
3E00
2000
2000
3C00
2000
2000
3E00
0000
0100
0300
0100
0100
0100
0100
0380
0000
0000
ENDCHAR

STARTCHAR onx226
ENCODING 226
SWIDTH 556 0
DWIDTH 10 0
BBX 10 18 0 -5
BITMAP
0000
3E00
2000
2000
3C00
2000
2000
3E00
0000
0380
0440
0440
0080
0100
0200
07C0
0000
0000
ENDCHAR

STARTCHAR onx227
ENCODING 227
SWIDTH 556 0
DWIDTH 10 0
BBX 10 18 0 -5
BITMAP
0000
3E00
2000
2000
3C00
2000
2000
3E00
0000
0380
0440
0040
0180
0040
0440
0380
0000
0000
ENDCHAR

STARTCHAR onx228
ENCODING 228
SWIDTH 556 0
DWIDTH 10 0
BBX 10 18 0 -5
BITMAP
0000
3E00
2000
2000
3C00
2000
2000
3E00
0000
0080
0180
0280
0480
07C0
0080
0080
0000
0000
ENDCHAR

STARTCHAR onx229
ENCODING 229
SWIDTH 556 0
DWIDTH 10 0
BBX 10 18 0 -5
BITMAP
0000
3E00
2000
2000
3C00
2000
2000
3E00
0000
07C0
0400
0400
0780
0040
0440
0380
0000
0000
ENDCHAR

STARTCHAR onx230
ENCODING 230
SWIDTH 556 0
DWIDTH 10 0
BBX 10 18 0 -5
BITMAP
0000
3E00
2000
2000
3C00
2000
2000
3E00
0000
0380
0440
0400
0780
0440
0440
0380
0000
0000
ENDCHAR

STARTCHAR onx231
ENCODING 231
SWIDTH 556 0
DWIDTH 10 0
BBX 10 18 0 -5
BITMAP
0000
3E00
2000
2000
3C00
2000
2000
3E00
0000
07C0
0040
0080
0080
0100
0100
0100
0000
0000
ENDCHAR

STARTCHAR onx232
ENCODING 232
SWIDTH 556 0
DWIDTH 10 0
BBX 10 18 0 -5
BITMAP
0000
3E00
2000
2000
3C00
2000
2000
3E00
0000
0380
0440
0440
0380
0440
0440
0380
0000
0000
ENDCHAR

STARTCHAR onx233
ENCODING 233
SWIDTH 556 0
DWIDTH 10 0
BBX 10 18 0 -5
BITMAP
0000
3E00
2000
2000
3C00
2000
2000
3E00
0000
0380
0440
0440
03C0
0040
0440
0380
0000
0000
ENDCHAR

STARTCHAR onx234
ENCODING 234
SWIDTH 556 0
DWIDTH 10 0
BBX 10 18 0 -5
BITMAP
0000
3E00
2000
2000
3C00
2000
2000
3E00
0000
0100
0280
0440
0440
07C0
0440
0440
0000
0000
ENDCHAR

STARTCHAR onx235
ENCODING 235
SWIDTH 556 0
DWIDTH 10 0
BBX 10 18 0 -5
BITMAP
0000
3E00
2000
2000
3C00
2000
2000
3E00
0000
0780
0240
0240
0380
0240
0240
0780
0000
0000
ENDCHAR

STARTCHAR onx236
ENCODING 236
SWIDTH 556 0
DWIDTH 10 0
BBX 10 18 0 -5
BITMAP
0000
3E00
2000
2000
3C00
2000
2000
3E00
0000
0380
0440
0400
0400
0400
0440
0380
0000
0000
ENDCHAR

STARTCHAR onx237
ENCODING 237
SWIDTH 556 0
DWIDTH 10 0
BBX 10 18 0 -5
BITMAP
0000
3E00
2000
2000
3C00
2000
2000
3E00
0000
0780
0440
0440
0440
0440
0440
0780
0000
0000
ENDCHAR

STARTCHAR onx238
ENCODING 238
SWIDTH 556 0
DWIDTH 10 0
BBX 10 18 0 -5
BITMAP
0000
3E00
2000
2000
3C00
2000
2000
3E00
0000
07C0
0400
0400
0780
0400
0400
07C0
0000
0000
ENDCHAR

STARTCHAR onx239
ENCODING 239
SWIDTH 556 0
DWIDTH 10 0
BBX 10 18 0 -5
BITMAP
0000
3E00
2000
2000
3C00
2000
2000
3E00
0000
07C0
0400
0400
0780
0400
0400
0400
0000
0000
ENDCHAR

STARTCHAR onx240
ENCODING 240
SWIDTH 556 0
DWIDTH 10 0
BBX 10 18 0 -5
BITMAP
0000
3E00
2000
2000
3C00
2000
2000
2000
0000
0380
0440
0440
0440
0440
0440
0380
0000
0000
ENDCHAR

STARTCHAR onx241
ENCODING 241
SWIDTH 556 0
DWIDTH 10 0
BBX 10 18 0 -5
BITMAP
0000
3E00
2000
2000
3C00
2000
2000
2000
0000
0100
0300
0100
0100
0100
0100
0380
0000
0000
ENDCHAR

STARTCHAR onx242
ENCODING 242
SWIDTH 556 0
DWIDTH 10 0
BBX 10 18 0 -5
BITMAP
0000
3E00
2000
2000
3C00
2000
2000
2000
0000
0380
0440
0440
0080
0100
0200
07C0
0000
0000
ENDCHAR

STARTCHAR onx243
ENCODING 243
SWIDTH 556 0
DWIDTH 10 0
BBX 10 18 0 -5
BITMAP
0000
3E00
2000
2000
3C00
2000
2000
2000
0000
0380
0440
0040
0180
0040
0440
0380
0000
0000
ENDCHAR

STARTCHAR onx244
ENCODING 244
SWIDTH 556 0
DWIDTH 10 0
BBX 10 18 0 -5
BITMAP
0000
3E00
2000
2000
3C00
2000
2000
2000
0000
0080
0180
0280
0480
07C0
0080
0080
0000
0000
ENDCHAR

STARTCHAR onx245
ENCODING 245
SWIDTH 556 0
DWIDTH 10 0
BBX 10 18 0 -5
BITMAP
0000
3E00
2000
2000
3C00
2000
2000
2000
0000
07C0
0400
0400
0780
0040
0440
0380
0000
0000
ENDCHAR

STARTCHAR onx246
ENCODING 246
SWIDTH 556 0
DWIDTH 10 0
BBX 10 18 0 -5
BITMAP
0000
3E00
2000
2000
3C00
2000
2000
2000
0000
0380
0440
0400
0780
0440
0440
0380
0000
0000
ENDCHAR

STARTCHAR onx247
ENCODING 247
SWIDTH 556 0
DWIDTH 10 0
BBX 10 18 0 -5
BITMAP
0000
3E00
2000
2000
3C00
2000
2000
2000
0000
07C0
0040
0080
0080
0100
0100
0100
0000
0000
ENDCHAR

STARTCHAR onx248
ENCODING 248
SWIDTH 556 0
DWIDTH 10 0
BBX 10 18 0 -5
BITMAP
0000
3E00
2000
2000
3C00
2000
2000
2000
0000
0380
0440
0440
0380
0440
0440
0380
0000
0000
ENDCHAR

STARTCHAR onx249
ENCODING 249
SWIDTH 556 0
DWIDTH 10 0
BBX 10 18 0 -5
BITMAP
0000
3E00
2000
2000
3C00
2000
2000
2000
0000
0380
0440
0440
03C0
0040
0440
0380
0000
0000
ENDCHAR

STARTCHAR onx250
ENCODING 250
SWIDTH 556 0
DWIDTH 10 0
BBX 10 18 0 -5
BITMAP
0000
3E00
2000
2000
3C00
2000
2000
2000
0000
0100
0280
0440
0440
07C0
0440
0440
0000
0000
ENDCHAR

STARTCHAR onx251
ENCODING 251
SWIDTH 556 0
DWIDTH 10 0
BBX 10 18 0 -5
BITMAP
0000
3E00
2000
2000
3C00
2000
2000
2000
0000
0780
0240
0240
0380
0240
0240
0780
0000
0000
ENDCHAR

STARTCHAR onx252
ENCODING 252
SWIDTH 556 0
DWIDTH 10 0
BBX 10 18 0 -5
BITMAP
0000
3E00
2000
2000
3C00
2000
2000
2000
0000
0380
0440
0400
0400
0400
0440
0380
0000
0000
ENDCHAR

STARTCHAR onx253
ENCODING 253
SWIDTH 556 0
DWIDTH 10 0
BBX 10 18 0 -5
BITMAP
0000
3E00
2000
2000
3C00
2000
2000
2000
0000
0780
0440
0440
0440
0440
0440
0780
0000
0000
ENDCHAR

STARTCHAR onx254
ENCODING 254
SWIDTH 556 0
DWIDTH 10 0
BBX 10 18 0 -5
BITMAP
0000
3E00
2000
2000
3C00
2000
2000
2000
0000
07C0
0400
0400
0780
0400
0400
07C0
0000
0000
ENDCHAR

STARTCHAR onx255
ENCODING 255
SWIDTH 556 0
DWIDTH 10 0
BBX 10 18 0 -5
BITMAP
0000
3E00
2000
2000
3C00
2000
2000
2000
0000
07C0
0400
0400
0780
0400
0400
0400
0000
0000
ENDCHAR
ENDFONT
